PathFileType	3	(X/Y/Z)	D:\Jess\Healthy\Labelled\HA22\20251031\SRRun01.trc
DataRate	CameraRate	NumFrames	NumMarkers	Units	OrigDataRate	OrigDataStartFrame	OrigNumFrames
250.0	250.0	4	37	mm	250.0	35312	2501
Frame#	Time	C7			T10			CLAV			LSHO			RSHO			LASIS			RASIS			LPSIS			RPSIS			LILCR			RILCR			LGTR			LTHI			LLTHI			LLEP			LMEP			LPSH			LLSH			LDSH			LLMAL			LMMAL			LTOE			L5TH			LHEE			RGTR			RTHI			RLTHI			RLEP			RMEP			RPSH			RLSH			RDSH			RLMAL			RMMAL			RTOE			R5TH			RHEE			
		X1	Y1	Z1	X2	Y2	Z2	X3	Y3	Z3	X4	Y4	Z4	X5	Y5	Z5	X6	Y6	Z6	X7	Y7	Z7	X8	Y8	Z8	X9	Y9	Z9	X10	Y10	Z10	X11	Y11	Z11	X12	Y12	Z12	X13	Y13	Z13	X14	Y14	Z14	X15	Y15	Z15	X16	Y16	Z16	X17	Y17	Z17	X18	Y18	Z18	X19	Y19	Z19	X20	Y20	Z20	X21	Y21	Z21	X22	Y22	Z22	X23	Y23	Z23	X24	Y24	Z24	X25	Y25	Z25	X26	Y26	Z26	X27	Y27	Z27	X28	Y28	Z28	X29	Y29	Z29	X30	Y30	Z30	X31	Y31	Z31	X32	Y32	Z32	X33	Y33	Z33	X34	Y34	Z34	X35	Y35	Z35	X36	Y36	Z36	X37	Y37	Z37	

313	141.244	846.3329005448172	1531.340806827695	-913.5969388187937	826.194820439987	1283.026386349564	-829.8994667452176	832.6739092101149	1423.568892112885	-1051.680957400504	680.5315974739008	1543.567438853864	-964.3677920080278	1006.195776965796	1509.132349751763	-990.5210663452829	697.266439828049	1011.687765763	-974.2360268770638	925.6493655332008	1024.092171654372	-975.1576393165999	788.4973101298374	1052.67868848639	-787.0123811697478	832.2071129057999	1057.351908450421	-786.058532039003	654.6195502202638	1093.254492492469	-899.0502249246612	982.2408899419182	1089.71879830187	-908.9477445191977	632.3160063222333	862.0245789273539	-929.4080635429629	713.4909554943264	755.3477139983457	-1069.318610158418	642.2180126828241	653.3325071671369	-983.0640505127798	671.1761638492726	530.4558841049363	-1006.695031204047	nan	nan	nan	717.9041325657132	434.8311737272701	-953.7371853005218	666.7682871922156	499.3715788150766	-818.7958613468608	721.1477081444791	415.1393871307367	-751.4400969311225	692.5605884217968	448.0553050070152	-608.6975558330303	nan	nan	nan	693.3054291494025	279.5455572614769	-601.5155075660126	652.4004226833865	316.8764851306134	-562.3438349159463	757.1937172284408	514.2590685202224	-549.0668812311161	997.368354459961	885.5804627711932	-903.6441116014072	910.8052293207148	735.1810130823843	-1025.482797613027	970.7162595506722	664.6329038872283	-935.1473622386462	934.991386620649	507.2890466929156	-918.1346174105731	nan	nan	nan	864.3964123405668	387.064895917609	-918.2680980340808	926.1972104741219	323.8249448787063	-810.7470215901798	849.0354462833612	225.2891710096616	-804.8360224798454	888.2206100096816	133.3386785145823	-688.1246685060411	nan	nan	nan	867.5262759052733	60.77504391943723	-826.4555729545726	916.0175101653817	46.82353424218071	-776.7847553133751	834.1899139985488	114.4732631002646	-592.5174958091686	
314	141.248	846.5117107548597	1533.836007141332	-913.4569243756617	827.2761174100409	1285.369803760146	-829.8881109668913	831.4215706157071	1426.443571855949	-1051.399731559546	680.3100900251583	1546.373785191983	-962.3673187133807	1005.476284873069	1511.958300263285	-991.8986855636683	697.1775077164049	1014.684729185387	-973.1717117797807	925.6004391954957	1025.78881761013	-975.485979445177	789.5224982867679	1055.441407292911	-786.5951582093772	833.2777782351908	1059.950031116201	-785.9650498112181	654.993478880817	1096.118467765806	-897.4970346043239	982.0532725177908	1092.04632472884	-910.5584836278653	631.8887271703413	865.5529892341905	-929.2166770840428	713.0873868744138	760.9544969330149	-1071.092012566009	642.2905641657724	657.5989100141137	-986.6501001978736	671.1689247606812	535.0590800297108	-1012.455853368298	nan	nan	nan	718.4570350792471	438.384568380266	-961.5716095420941	666.8018257775389	499.1785959353066	-825.1756739379657	721.4624398831487	413.5123535190392	-759.7249415097177	692.6961748828799	442.6488326498713	-616.2123708854554	nan	nan	nan	694.115366981697	274.1460084724388	-613.9535479564987	653.0244284294392	310.1046330555181	-573.7055691559012	757.0090838136801	507.4544350494073	-554.5334088316673	997.3200063635094	887.3067080244701	-902.4028045469732	911.0438567080639	734.8242665628189	-1020.998624619195	970.3486854715717	666.0249406426182	-928.8767822231056	935.0378855930817	508.8181079024203	-908.9886515020831	nan	nan	nan	864.5730402139228	388.3488466113297	-908.431946423774	926.2779485007426	326.0153366118387	-800.406482329654	849.2676167243471	227.1712606014346	-794.3585269326495	888.3738280484538	135.6133695253068	-677.2804347967075	nan	nan	nan	867.503496231015	60.58336759024559	-814.5972927237107	915.9286634134072	47.18440660128685	-764.738451625211	834.4695294502742	117.9896312190639	-581.6968510053611	
315	141.252	846.6577817274978	1536.498223421051	-913.3395715989724	828.3754211805445	1287.853456379992	-829.9484463893995	830.1581764884858	1429.50833312701	-1051.142772125625	680.0866019856937	1549.32704036702	-960.387816682368	1004.725501452848	1514.971363901037	-993.2514565175221	697.1309796457939	1017.854384329025	-972.241554365634	925.5973581827627	1027.611773217065	-975.8927904486642	790.529295501429	1058.350192404582	-786.2836317688042	834.3333770463457	1062.689277319469	-785.9800268238888	655.3910563945915	1099.133028293144	-896.0171198450587	981.8400049911494	1094.463614429803	-912.3192289100152	631.48258922103	869.2948758379781	-929.1286460943784	712.6889688840562	766.7321157160327	-1072.804742495386	642.389403436115	662.0611435413069	-990.109908262154	671.169548610863	539.8205033661832	-1018.007240692721	nan	nan	nan	718.9971759667231	442.0588868696981	-969.2465275998219	666.849643036864	498.929065028987	-831.3966454721872	721.8015868166241	411.8116369722507	-768.0007572929935	692.8672734772695	437.001264246188	-623.7767154025639	nan	nan	nan	694.8951428141046	268.6560997222492	-626.6290581316586	653.6446379210364	303.190356041944	-585.2951285734559	756.9165500242295	500.2397698758633	-560.0343370638304	997.2615060971897	889.1832519122102	-901.1911911971581	911.2400052847712	734.7103636546128	-1016.539866733991	969.9772160276174	667.6638877187324	-922.6725359904602	935.1124112786958	510.6932049417242	-899.8828596075494	nan	nan	nan	864.7869633849132	389.9654928384847	-898.6527912296259	926.4011996387833	328.5105825591124	-790.1562084727086	849.5656790497279	229.3297753735544	-784.0349579319242	888.5664586703624	138.1021336692993	-666.6177927991326	nan	nan	nan	867.4999999329856	60.41193517467796	-802.8118414253873	915.8561250094255	47.59855573195259	-752.7665831952214	834.7872192102797	121.8047518569406	-571.0910463195886	
316	141.256	846.7711398664289	1539.311553090453	-913.2436212136164	829.4894233089299	1290.464042434657	-830.0780181318825	828.8885985537902	1432.748029624618	-1050.908108828478	679.8615842704297	1552.409192064801	-958.4352755018227	1003.94686215298	1518.154324364124	-994.57410657819	697.1256816735205	1021.184184298494	-971.4470544160182	925.6338407835635	1029.552052995441	-976.3736293142091	791.5109324253596	1061.401530460826	-786.0781647669942	835.3666038384949	1065.565692519287	-786.1021420478526	655.8055113188977	1102.295185580416	-894.6195707394808	981.602718446174	1096.966346816284	-914.2198293849253	631.0995741840708	873.2361953396603	-929.1444306993974	712.3082627224404	772.6469698318402	-1074.455697598958	642.5021924461228	666.6956339604099	-993.4470689948075	671.1764483080302	544.7039141702237	-1023.33895571701	nan	nan	nan	719.5113445352996	445.8178729032603	-976.7470358079696	666.9125683281619	498.606059000641	-837.4654018411368	722.1648714559236	410.0338733987494	-776.2705144617072	693.0752820681797	431.1243788010116	-631.4087141957887	nan	nan	nan	695.6421610882275	263.1011609031171	-639.5378967252296	654.2567689111723	296.1607983921911	-597.1196338937198	756.9157039965856	492.6290404425266	-565.6004046329707	997.1914980810424	891.20687584501	-900.0149924390946	911.3577254192248	734.8498229912657	-1012.12877207652	969.6101549794732	669.5504282780695	-916.5921720817469	935.2164278515012	512.9133730596945	-890.8597496588229	nan	nan	nan	865.0438528561331	391.9109838516575	-888.9573059402169	926.5688190864458	331.3041094025656	-780.022359411272	849.9362840816449	231.7604644737268	-773.8896173891221	888.801162018019	140.8022407631326	-656.1579927666853	nan	nan	nan	867.51861796515	60.26019795747307	-791.108131906513	915.8026405679153	48.06901574246488	-740.8795268333043	835.1400139308208	125.9208382083448	-560.7260954794688	
